<svg width="20" height="19" viewBox="0 0 20 19" fill="none" xmlns="http://www.w3.org/2000/svg">
<path d="M10.001 1.84225C12.35 -0.266279 15.98 -0.196279 18.2426 2.07108C20.5053 4.33844 20.583 7.95072 18.4786 10.3067L9.9999 18.7987L1.52138 10.3067C-0.582952 7.95072 -0.504292 4.33273 1.75736 2.07108C4.02157 -0.193129 7.64519 -0.269409 10.001 1.84225ZM16.827 3.48382C15.3279 1.98166 12.9076 1.92073 11.337 3.33059L10.0019 4.52896L8.6661 3.33153C7.09098 1.91969 4.67506 1.9818 3.17157 3.48529C1.68183 4.97503 1.60704 7.36102 2.97993 8.93692L9.9999 15.968L17.0201 8.93692C18.3935 7.36042 18.319 4.97897 16.827 3.48382Z" fill="#070F1D"/>
</svg>
